# WaveFront *.obj file (generated by Autodesk ATF)

mtllib black_and_white.mtl

g Body1

v 0.980000 0.020000 1.000000
v 0.980000 0.980000 1.000000
v 0.980000 0.980000 0.980000
v 0.980000 0.020000 0.980000
v 0.020000 0.980000 1.000000
v 0.020000 0.980000 0.980000
v 0.020000 0.020000 1.000000
v 0.020000 0.020000 0.980000
v 0.000000 0.020000 0.980000
v 0.000000 0.980000 0.980000
v 0.000000 0.980000 0.020000
v 0.020000 0.980000 0.020000
v 0.000000 0.020000 0.020000
v 0.020000 0.020000 0.020000
v 0.020000 1.000000 0.020000
v 0.020000 1.000000 0.980000
v 0.980000 1.000000 0.980000
v 0.980000 1.000000 0.020000
v 0.980000 0.980000 0.020000
v 0.020000 0.020000 0.000000
v 0.020000 0.980000 0.000000
v 0.980000 0.980000 0.000000
v 0.980000 0.020000 0.000000
v 0.980000 0.020000 0.020000
v 1.000000 0.020000 0.020000
v 1.000000 0.980000 0.020000
v 1.000000 0.980000 0.980000
v 1.000000 0.020000 0.980000
v 0.020000 0.000000 0.980000
v 0.020000 0.000000 0.020000
v 0.980000 0.000000 0.020000
v 0.980000 0.000000 0.980000
v 0.000000 0.000000 0.000000
v 0.000000 0.000000 1.000000
v 0.000000 1.000000 1.000000
v 0.000000 1.000000 0.000000
v 1.000000 0.000000 0.000000
v 1.000000 1.000000 0.000000
v 1.000000 0.000000 1.000000
v 1.000000 1.000000 1.000000
vt -2.438400 0.000000 0.000000
vt -0.000000 0.000000 0.000000
vt -2.438400 0.050800 0.000000
vt -0.000000 0.050800 0.000000
vt -0.000000 0.000000 0.000000
vt -0.000000 0.050800 0.000000
vt -2.438400 0.000000 0.000000
vt -2.438400 0.050800 0.000000
vt -0.000000 0.000000 0.000000
vt -0.000000 0.050800 0.000000
vt -2.438400 0.000000 0.000000
vt -2.438400 0.050800 0.000000
vt -2.438400 0.000000 0.000000
vt -0.000000 0.000000 0.000000
vt -2.438400 0.050800 0.000000
vt -0.000000 0.050800 0.000000
vt -1.219200 -1.219200 0.000000
vt 1.219200 -1.219200 0.000000
vt -1.219200 1.219200 0.000000
vt 1.219200 1.219200 0.000000
vt -2.438400 0.000000 0.000000
vt -0.000000 0.000000 0.000000
vt -2.438400 0.050800 0.000000
vt 0.000000 0.050800 0.000000
vt -0.000000 0.000000 0.000000
vt -0.000000 0.050800 0.000000
vt -2.438400 0.000000 0.000000
vt -2.438400 0.050800 0.000000
vt -0.000000 0.000000 0.000000
vt -0.000000 0.050800 0.000000
vt -2.438400 0.000000 0.000000
vt -2.438400 0.050800 0.000000
vt -2.438400 0.000000 0.000000
vt -0.000000 0.000000 0.000000
vt -2.438400 0.050800 0.000000
vt -0.000000 0.050800 0.000000
vt -1.219200 -1.219200 0.000000
vt 1.219200 -1.219200 0.000000
vt -1.219200 1.219200 0.000000
vt 1.219200 1.219200 0.000000
vt -0.000000 0.000000 0.000000
vt -0.000000 0.050800 0.000000
vt -2.438400 0.000000 0.000000
vt -2.438400 0.050800 0.000000
vt -2.438400 0.000000 0.000000
vt -0.000000 0.000000 0.000000
vt -2.438400 0.050800 0.000000
vt 0.000000 0.050800 0.000000
vt -2.438400 0.000000 0.000000
vt -0.000000 0.000000 0.000000
vt -2.438400 0.050800 0.000000
vt -0.000000 0.050800 0.000000
vt -0.000000 0.000000 0.000000
vt -0.000000 0.050800 0.000000
vt -2.438400 0.000000 0.000000
vt -2.438400 0.050800 0.000000
vt -1.219200 1.219200 0.000000
vt -1.219200 -1.219200 0.000000
vt 1.219200 1.219200 0.000000
vt 1.219200 -1.219200 0.000000
vt -2.438400 0.000000 0.000000
vt -0.000000 0.000000 0.000000
vt -2.438400 0.050800 0.000000
vt -0.000000 0.050800 0.000000
vt -2.438400 0.000000 0.000000
vt -0.000000 0.000000 0.000000
vt -2.438400 0.050800 0.000000
vt 0.000000 0.050800 0.000000
vt -0.000000 0.000000 0.000000
vt -0.000000 0.050800 0.000000
vt -2.438400 0.000000 0.000000
vt -2.438400 0.050800 0.000000
vt -2.438400 0.000000 0.000000
vt -0.000000 0.000000 0.000000
vt -2.438400 0.050800 0.000000
vt -0.000000 0.050800 0.000000
vt 1.219200 -1.219200 0.000000
vt 1.219200 1.219200 0.000000
vt -1.219200 -1.219200 0.000000
vt -1.219200 1.219200 0.000000
vt -0.000000 0.000000 0.000000
vt -0.000000 0.050800 0.000000
vt -2.438400 0.000000 0.000000
vt -2.438400 0.050800 0.000000
vt -2.438400 0.000000 0.000000
vt -0.000000 0.000000 0.000000
vt -2.438400 0.050800 0.000000
vt -0.000000 0.050800 0.000000
vt -2.438400 0.000000 0.000000
vt -0.000000 0.000000 0.000000
vt -2.438400 0.050800 0.000000
vt -0.000000 0.050800 0.000000
vt -2.438400 0.000000 0.000000
vt -0.000000 0.000000 0.000000
vt -2.438400 0.050800 0.000000
vt -0.000000 0.050800 0.000000
vt -1.219200 -1.219200 0.000000
vt 1.219200 -1.219200 0.000000
vt -1.219200 1.219200 0.000000
vt 1.219200 1.219200 0.000000
vt -2.438400 0.000000 0.000000
vt -0.000000 0.000000 0.000000
vt -2.438400 0.050800 0.000000
vt -0.000000 0.050800 0.000000
vt -2.438400 0.000000 0.000000
vt 0.000000 0.000000 0.000000
vt -2.438400 0.050800 0.000000
vt 0.000000 0.050800 0.000000
vt -2.438400 0.000000 0.000000
vt 0.000000 0.000000 0.000000
vt -2.438400 0.050800 0.000000
vt 0.000000 0.050800 0.000000
vt -2.438400 0.000000 0.000000
vt -0.000000 0.000000 0.000000
vt -2.438400 0.050800 0.000000
vt -0.000000 0.050800 0.000000
vt -1.219200 -1.219200 0.000000
vt 1.219200 -1.219200 0.000000
vt -1.219200 1.219200 0.000000
vt 1.219200 1.219200 0.000000
vt 2.489200 0.050800 0.000000
vt 2.540000 0.000000 0.000000
vt 2.489200 2.489200 0.000000
vt 2.540000 2.540000 0.000000
vt 0.000000 2.540000 0.000000
vt 0.000000 0.000000 0.000000
vt 0.050800 0.050800 0.000000
vt 0.050800 2.489200 0.000000
vt 2.489200 0.050800 0.000000
vt 2.540000 0.000000 0.000000
vt 2.489200 2.489200 0.000000
vt 2.540000 2.540000 0.000000
vt 0.050800 2.489200 0.000000
vt -0.000000 2.540000 0.000000
vt -0.000000 0.000000 0.000000
vt 0.050800 0.050800 0.000000
vt 2.489200 0.050800 0.000000
vt 2.540000 0.000000 0.000000
vt 2.489200 2.489200 0.000000
vt 2.540000 2.540000 0.000000
vt 0.050800 2.489200 0.000000
vt -0.000000 2.540000 0.000000
vt -0.000000 0.000000 0.000000
vt 0.050800 0.050800 0.000000
vt 2.489200 0.050800 0.000000
vt 2.540000 0.000000 0.000000
vt 2.489200 2.489200 0.000000
vt 2.540000 2.540000 0.000000
vt 0.000000 2.540000 0.000000
vt 0.000000 0.000000 0.000000
vt 0.050800 0.050800 0.000000
vt 0.050800 2.489200 0.000000
vt -1.219200 -1.219200 0.000000
vt -1.270000 -1.270000 0.000000
vt 1.219200 -1.219200 0.000000
vt 1.270000 -1.270000 0.000000
vt 1.219200 1.219200 0.000000
vt 1.270000 1.270000 0.000000
vt -1.270000 1.270000 0.000000
vt -1.219200 1.219200 0.000000
vt -1.219200 1.219200 0.000000
vt 1.219200 1.219200 0.000000
vt 1.270000 1.270000 0.000000
vt 1.219200 -1.219200 0.000000
vt 1.270000 -1.270000 0.000000
vt -1.219200 -1.219200 0.000000
vt -1.270000 -1.270000 0.000000
vt -1.270000 1.270000 0.000000
vn -2.540000 0.000000 0.000000
vn -2.540000 0.000000 0.000000
vn -2.540000 0.000000 0.000000
vn -2.540000 0.000000 0.000000
vn 0.000000 -2.540000 0.000000
vn 0.000000 -2.540000 0.000000
vn 0.000000 -2.540000 0.000000
vn 0.000000 -2.540000 0.000000
vn 2.540000 0.000000 0.000000
vn 2.540000 0.000000 0.000000
vn 2.540000 0.000000 0.000000
vn 2.540000 0.000000 0.000000
vn 0.000000 2.540000 0.000000
vn 0.000000 2.540000 0.000000
vn 0.000000 2.540000 0.000000
vn 0.000000 2.540000 0.000000
vn 0.000000 0.000000 2.540000
vn 0.000000 0.000000 2.540000
vn 0.000000 0.000000 2.540000
vn 0.000000 0.000000 2.540000
vn 0.000000 0.000000 -2.540000
vn 0.000000 0.000000 -2.540000
vn 0.000000 0.000000 -2.540000
vn 0.000000 0.000000 -2.540000
vn 0.000000 -2.540000 0.000000
vn 0.000000 -2.540000 0.000000
vn 0.000000 -2.540000 0.000000
vn 0.000000 0.000000 2.540000
vn 0.000000 0.000000 2.540000
vn 0.000000 0.000000 2.540000
vn 0.000000 0.000000 2.540000
vn -0.000000 2.540000 -0.000000
vn -0.000000 2.540000 -0.000000
vn -0.000000 2.540000 -0.000000
vn -2.540000 0.000000 0.000000
vn -2.540000 0.000000 0.000000
vn -2.540000 0.000000 0.000000
vn -2.540000 0.000000 0.000000
vn 2.540000 0.000000 0.000000
vn 2.540000 0.000000 0.000000
vn 2.540000 0.000000 0.000000
vn 0.000000 0.000000 -2.540000
vn 0.000000 0.000000 -2.540000
vn 0.000000 0.000000 -2.540000
vn -2.540000 0.000000 0.000000
vn -2.540000 0.000000 0.000000
vn -2.540000 0.000000 0.000000
vn 0.000000 0.000000 2.540000
vn 0.000000 0.000000 2.540000
vn 0.000000 0.000000 2.540000
vn -0.000000 2.540000 -0.000000
vn -0.000000 2.540000 -0.000000
vn -0.000000 2.540000 -0.000000
vn -0.000000 2.540000 -0.000000
vn 2.540000 0.000000 0.000000
vn 2.540000 0.000000 0.000000
vn 2.540000 0.000000 0.000000
vn 0.000000 -2.540000 0.000000
vn 0.000000 -2.540000 0.000000
vn 0.000000 -2.540000 0.000000
vn -2.540000 0.000000 0.000000
vn -2.540000 0.000000 0.000000
vn -2.540000 0.000000 0.000000
vn -0.000000 2.540000 -0.000000
vn -0.000000 2.540000 -0.000000
vn -0.000000 2.540000 -0.000000
vn 0.000000 0.000000 -2.540000
vn 0.000000 0.000000 -2.540000
vn 0.000000 0.000000 -2.540000
vn 0.000000 0.000000 -2.540000
vn 0.000000 0.000000 2.540000
vn 0.000000 0.000000 2.540000
vn 0.000000 0.000000 2.540000
vn 0.000000 -2.540000 0.000000
vn 0.000000 -2.540000 0.000000
vn -0.000000 0.000000 -2.540000
vn -0.000000 0.000000 -2.540000
vn -0.000000 0.000000 -2.540000
vn -0.000000 2.540000 -0.000000
vn -0.000000 2.540000 -0.000000
vn 2.540000 0.000000 0.000000
vn 2.540000 0.000000 0.000000
vn 2.540000 0.000000 0.000000
vn 2.540000 0.000000 0.000000
vn 2.540000 0.000000 0.000000
vn 2.540000 0.000000 0.000000
vn 0.000000 0.000000 2.540000
vn 0.000000 0.000000 2.540000
vn -2.540000 0.000000 0.000000
vn -2.540000 0.000000 0.000000
vn -0.000000 0.000000 -2.540000
vn -0.000000 0.000000 -2.540000
vn 0.000000 -2.540000 0.000000
vn 0.000000 -2.540000 0.000000
vn 0.000000 -2.540000 0.000000
vn 0.000000 -2.540000 0.000000
vn -2.540000 0.000000 0.000000
vn -2.540000 0.000000 0.000000
vn -2.540000 0.000000 0.000000
vn -2.540000 0.000000 0.000000
vn -2.540000 0.000000 0.000000
vn -2.540000 0.000000 0.000000
vn -2.540000 0.000000 0.000000
vn -2.540000 0.000000 0.000000
vn 0.000000 0.000000 -2.540000
vn 0.000000 0.000000 -2.540000
vn 0.000000 0.000000 -2.540000
vn 0.000000 0.000000 -2.540000
vn 0.000000 0.000000 -2.540000
vn 0.000000 0.000000 -2.540000
vn 0.000000 0.000000 -2.540000
vn 0.000000 0.000000 -2.540000
vn 2.540000 0.000000 0.000000
vn 2.540000 0.000000 0.000000
vn 2.540000 0.000000 0.000000
vn 2.540000 0.000000 0.000000
vn 2.540000 0.000000 0.000000
vn 2.540000 0.000000 0.000000
vn 2.540000 0.000000 0.000000
vn 2.540000 0.000000 0.000000
vn 0.000000 -0.000000 2.540000
vn 0.000000 -0.000000 2.540000
vn 0.000000 -0.000000 2.540000
vn 0.000000 -0.000000 2.540000
vn 0.000000 -0.000000 2.540000
vn 0.000000 -0.000000 2.540000
vn 0.000000 -0.000000 2.540000
vn 0.000000 -0.000000 2.540000
vn 0.000000 2.540000 0.000000
vn 0.000000 2.540000 0.000000
vn 0.000000 2.540000 0.000000
vn 0.000000 2.540000 0.000000
vn 0.000000 2.540000 0.000000
vn 0.000000 2.540000 0.000000
vn 0.000000 2.540000 0.000000
vn 0.000000 2.540000 0.000000
vn 0.000000 -2.540000 0.000000
vn 0.000000 -2.540000 0.000000
vn 0.000000 -2.540000 0.000000
vn 0.000000 -2.540000 0.000000
vn 0.000000 -2.540000 0.000000
vn 0.000000 -2.540000 0.000000
vn 0.000000 -2.540000 0.000000
vn 0.000000 -2.540000 0.000000
usemtl Material.002
f 1/1/1 2/2/2 4/3/3
f 4/3/3 2/2/2 3/4/4
f 5/5/5 6/6/6 2/7/7
f 2/7/7 6/6/6 3/8/8
f 7/9/9 8/10/10 5/11/11
f 5/11/11 8/10/10 6/12/12
f 7/13/13 1/14/14 8/15/15
f 8/15/15 1/14/14 4/16/16
usemtl Material.001
f 8/17/17 4/18/18 6/19/19
f 6/19/19 4/18/18 3/20/20
usemtl Material.002
f 9/21/21 10/22/22 8/23/23
f 8/23/23 10/22/22 6/24/24
f 11/25/25 12/26/26 10/27/27
f 10/27/27 12/26/26 6/28/6
f 13/29/28 14/30/29 11/31/30
f 11/31/30 14/30/29 12/32/31
f 13/33/32 9/34/33 14/35/34
f 14/35/34 9/34/33 8/36/15
usemtl Material.001
f 14/37/35 8/38/36 12/39/37
f 12/39/37 8/38/36 6/40/38
usemtl Material.002
f 16/41/39 6/42/12 15/43/40
f 15/43/40 6/42/12 12/44/41
f 16/45/42 17/46/43 6/47/24
f 6/47/24 17/46/43 3/48/44
f 17/49/45 18/50/46 3/51/4
f 3/51/4 18/50/46 19/52/47
f 15/53/48 12/54/31 18/55/49
f 18/55/49 12/54/31 19/56/50
usemtl Material.001
f 19/57/51 12/58/52 3/59/53
f 3/59/53 12/58/52 6/60/54
usemtl Material.002
f 20/61/55 21/62/56 14/63/57
f 14/63/57 21/62/56 12/64/41
f 21/65/58 22/66/59 12/67/26
f 12/67/26 22/66/59 19/68/60
f 23/69/61 24/70/62 22/71/63
f 22/71/63 24/70/62 19/72/47
f 23/73/64 20/74/65 24/75/66
f 24/75/66 20/74/65 14/76/34
usemtl Material.001
f 14/77/67 12/78/68 24/79/69
f 24/79/69 12/78/68 19/80/70
usemtl Material.002
f 26/81/71 19/82/50 25/83/72
f 25/83/72 19/82/50 24/84/73
f 26/85/74 27/86/75 19/87/60
f 19/87/60 27/86/75 3/88/8
f 27/89/76 28/90/77 3/91/44
f 3/91/44 28/90/77 4/92/78
f 28/93/79 25/94/80 4/95/16
f 4/95/16 25/94/80 24/96/66
usemtl Material.001
f 4/97/81 24/98/82 3/99/83
f 3/99/83 24/98/82 19/100/84
usemtl Material.002
f 29/101/85 30/102/86 8/103/10
f 8/103/10 30/102/86 14/104/57
f 30/105/87 31/106/88 14/107/29
f 14/107/29 31/106/88 24/108/73
f 31/109/89 32/110/90 24/111/62
f 24/111/62 32/110/90 4/112/3
f 32/113/91 29/114/92 4/115/78
f 4/115/78 29/114/92 8/116/23
usemtl Material.001
f 8/117/93 14/118/94 4/119/95
f 4/119/95 14/118/94 24/120/96
usemtl Material.002
f 9/121/97 34/122/98 10/123/99
f 10/123/99 34/122/98 35/124/100
f 10/123/99 35/124/100 36/125/101
f 34/122/98 9/121/97 33/126/102
f 33/126/102 9/121/97 13/127/103
f 33/126/102 13/127/103 11/128/104
f 33/126/102 11/128/104 36/125/101
f 36/125/101 11/128/104 10/123/99
f 20/129/105 33/130/106 21/131/107
f 21/131/107 33/130/106 36/132/108
f 21/131/107 36/132/108 22/133/109
f 22/133/109 36/132/108 38/134/110
f 22/133/109 38/134/110 37/135/111
f 20/129/105 23/136/112 33/130/106
f 33/130/106 23/136/112 37/135/111
f 37/135/111 23/136/112 22/133/109
f 25/137/113 37/138/114 26/139/115
f 26/139/115 37/138/114 38/140/116
f 26/139/115 38/140/116 27/141/117
f 27/141/117 38/140/116 40/142/118
f 27/141/117 40/142/118 39/143/119
f 25/137/113 28/144/120 37/138/114
f 37/138/114 28/144/120 39/143/119
f 39/143/119 28/144/120 27/141/117
f 1/145/121 39/146/122 2/147/123
f 2/147/123 39/146/122 40/148/124
f 2/147/123 40/148/124 35/149/125
f 39/146/122 1/145/121 34/150/126
f 34/150/126 1/145/121 7/151/127
f 34/150/126 7/151/127 5/152/128
f 34/150/126 5/152/128 35/149/125
f 35/149/125 5/152/128 2/147/123
f 15/153/129 36/154/130 16/155/131
f 16/155/131 36/154/130 35/156/132
f 16/155/131 35/156/132 17/157/133
f 17/157/133 35/156/132 40/158/134
f 17/157/133 40/158/134 38/159/135
f 15/153/129 18/160/136 36/154/130
f 36/154/130 18/160/136 38/159/135
f 38/159/135 18/160/136 17/157/133
f 31/161/137 30/162/138 33/163/139
f 33/163/139 30/162/138 29/164/140
f 33/163/139 29/164/140 34/165/141
f 34/165/141 29/164/140 32/166/142
f 34/165/141 32/166/142 39/167/143
f 39/167/143 32/166/142 37/168/144
f 37/168/144 32/166/142 31/161/137
f 37/168/144 31/161/137 33/163/139
# 40 vertices
# 168 texture params
# 144 normals
# 108 facets

# 1 groups
